<?xml version="1.0" encoding="us-ascii" standalone="no"?><svg xmlns="http://www.w3.org/2000/svg" xmlns:xlink="http://www.w3.org/1999/xlink" contentStyleType="text/css" height="1071px" preserveAspectRatio="none" style="width:1281px;height:1071px;background:#FFFFFF;" version="1.1" viewBox="0 0 1281 1071" width="1281px" zoomAndPan="magnify"><defs/><g><ellipse cx="1080.5313" cy="20" fill="#222222" rx="10" ry="10" style="stroke:#222222;stroke-width:1.0;"/><rect fill="#F1F1F1" height="47.9375" rx="12.5" ry="12.5" style="stroke:#181818;stroke-width:0.5;" width="261" x="950.0313" y="50"/><text fill="#000000" font-family="sans-serif" font-size="12" lengthAdjust="spacing" textLength="241" x="960.0313" y="71.1387">DanbooruSource(['surtr_(arknights)']):</text><text fill="#000000" font-family="sans-serif" font-size="12" lengthAdjust="spacing" textLength="146" x="960.0313" y="85.1074">&#20174;Danbooru&#29228;&#21462;&#22270;&#20687;&#25968;&#25454;</text><rect fill="#F1F1F1" height="61.9063" rx="12.5" ry="12.5" style="stroke:#181818;stroke-width:0.5;" width="229" x="966.0313" y="117.9375"/><text fill="#000000" font-family="sans-serif" font-size="12" lengthAdjust="spacing" textLength="209" x="976.0313" y="139.0762">ModeConvertAction('RGB', 'white')</text><text fill="#000000" font-family="sans-serif" font-size="12" lengthAdjust="spacing" textLength="109" x="976.0313" y="153.0449">&#36716;&#25442;&#20026;RGB&#33394;&#24425;&#26684;&#24335;</text><text fill="#000000" font-family="sans-serif" font-size="12" lengthAdjust="spacing" textLength="154" x="976.0313" y="167.0137">(&#23545;&#36879;&#26126;&#32972;&#26223;&#30340;&#28155;&#21152;&#30333;&#33394;&#32972;&#26223;)</text><polygon fill="#F1F1F1" points="1015.5313,199.8438,1145.5313,199.8438,1157.5313,212.6484,1145.5313,225.4531,1015.5313,225.4531,1003.5313,212.6484,1015.5313,199.8438" style="stroke:#181818;stroke-width:0.5;"/><text fill="#000000" font-family="sans-serif" font-size="11" lengthAdjust="spacing" textLength="130" x="1015.5313" y="210.0542">NoMonochromeAction()</text><text fill="#000000" font-family="sans-serif" font-size="11" lengthAdjust="spacing" textLength="77" x="1015.5313" y="222.8589">&#26159;&#21542;&#26159;&#21333;&#33394;&#22270;&#65311;</text><text fill="#000000" font-family="sans-serif" font-size="11" lengthAdjust="spacing" textLength="11" x="992.5313" y="210.0542">&#21542;</text><text fill="#000000" font-family="sans-serif" font-size="11" lengthAdjust="spacing" textLength="11" x="1157.5313" y="210.0542">&#26159;</text><polygon fill="#F1F1F1" points="823.2813,235.4531,1062.2813,235.4531,1074.2813,248.2578,1062.2813,261.0625,823.2813,261.0625,811.2813,248.2578,823.2813,235.4531" style="stroke:#181818;stroke-width:0.5;"/><text fill="#000000" font-family="sans-serif" font-size="11" lengthAdjust="spacing" textLength="239" x="823.2813" y="245.6636">ClassFilterAction(['illustration', 'bangumi'])</text><text fill="#000000" font-family="sans-serif" font-size="11" lengthAdjust="spacing" textLength="121" x="823.2813" y="258.4683">&#26159;&#21542;&#26159;&#25554;&#30011;&#25110;&#30058;&#21095;&#25130;&#22270;&#65311;</text><text fill="#000000" font-family="sans-serif" font-size="11" lengthAdjust="spacing" textLength="11" x="800.2813" y="245.6636">&#26159;</text><text fill="#000000" font-family="sans-serif" font-size="11" lengthAdjust="spacing" textLength="11" x="1074.2813" y="245.6636">&#21542;</text><polygon fill="#F1F1F1" points="724.2813,271.0625,878.2813,271.0625,890.2813,283.8672,878.2813,296.6719,724.2813,296.6719,712.2813,283.8672,724.2813,271.0625" style="stroke:#181818;stroke-width:0.5;"/><text fill="#000000" font-family="sans-serif" font-size="11" lengthAdjust="spacing" textLength="129" x="724.2813" y="281.2729">FilterSimilarAction('all')</text><text fill="#000000" font-family="sans-serif" font-size="11" lengthAdjust="spacing" textLength="154" x="724.2813" y="294.0776">&#21644;&#22788;&#29702;&#36807;&#30340;&#22270;&#20687;&#25968;&#25454;&#26159;&#21542;&#30456;&#20284;&#65311;</text><text fill="#000000" font-family="sans-serif" font-size="11" lengthAdjust="spacing" textLength="11" x="701.2813" y="281.2729">&#21542;</text><text fill="#000000" font-family="sans-serif" font-size="11" lengthAdjust="spacing" textLength="11" x="890.2813" y="281.2729">&#26159;</text><polygon fill="#F1F1F1" points="590.0625,306.6719,733.0625,306.6719,745.0625,319.4766,733.0625,332.2813,590.0625,332.2813,578.0625,319.4766,590.0625,306.6719" style="stroke:#181818;stroke-width:0.5;"/><text fill="#000000" font-family="sans-serif" font-size="11" lengthAdjust="spacing" textLength="108" x="590.0625" y="316.8823">FaceCountAction(1)</text><text fill="#000000" font-family="sans-serif" font-size="11" lengthAdjust="spacing" textLength="143" x="590.0625" y="329.687">&#26159;&#21542;&#21253;&#21547;&#19988;&#20165;&#21253;&#21547;&#21333;&#19968;&#20154;&#20687;&#65311;</text><text fill="#000000" font-family="sans-serif" font-size="11" lengthAdjust="spacing" textLength="11" x="567.0625" y="316.8823">&#26159;</text><text fill="#000000" font-family="sans-serif" font-size="11" lengthAdjust="spacing" textLength="11" x="745.0625" y="316.8823">&#21542;</text><rect fill="#F1F1F1" height="47.9375" rx="12.5" ry="12.5" style="stroke:#181818;stroke-width:0.5;" width="164" x="434.125" y="342.2813"/><text fill="#000000" font-family="sans-serif" font-size="12" lengthAdjust="spacing" textLength="120" x="444.125" y="363.4199">PersonSplitAction()</text><text fill="#000000" font-family="sans-serif" font-size="12" lengthAdjust="spacing" textLength="144" x="444.125" y="377.3887">&#35009;&#20986;&#22270;&#20687;&#20013;&#21253;&#21547;&#20154;&#29289;&#30340;&#37096;&#20998;</text><polygon fill="#F1F1F1" points="444.625,425.2188,587.625,425.2188,599.625,438.0234,587.625,450.8281,444.625,450.8281,432.625,438.0234,444.625,425.2188" style="stroke:#181818;stroke-width:0.5;"/><text fill="#000000" font-family="sans-serif" font-size="11" lengthAdjust="spacing" textLength="108" x="444.625" y="435.4292">FaceCountAction(1)</text><text fill="#000000" font-family="sans-serif" font-size="11" lengthAdjust="spacing" textLength="143" x="444.625" y="448.2339">&#26159;&#21542;&#21253;&#21547;&#19988;&#20165;&#21253;&#21547;&#21333;&#19968;&#20154;&#20687;&#65311;</text><text fill="#000000" font-family="sans-serif" font-size="11" lengthAdjust="spacing" textLength="11" x="421.625" y="435.4292">&#26159;</text><text fill="#000000" font-family="sans-serif" font-size="11" lengthAdjust="spacing" textLength="11" x="599.625" y="435.4292">&#21542;</text><polygon fill="#F1F1F1" points="304.25,460.8281,414.25,460.8281,426.25,473.6328,414.25,486.4375,304.25,486.4375,292.25,473.6328,304.25,460.8281" style="stroke:#181818;stroke-width:0.5;"/><text fill="#000000" font-family="sans-serif" font-size="11" lengthAdjust="spacing" textLength="68" x="304.25" y="471.0386">CCIPAction()</text><text fill="#000000" font-family="sans-serif" font-size="11" lengthAdjust="spacing" textLength="110" x="304.25" y="483.8433">&#20154;&#29289;&#26159;&#21542;&#20026;&#21490;&#23572;&#29305;&#23572;&#65311;</text><text fill="#000000" font-family="sans-serif" font-size="11" lengthAdjust="spacing" textLength="11" x="281.25" y="471.0386">&#26159;</text><text fill="#000000" font-family="sans-serif" font-size="11" lengthAdjust="spacing" textLength="11" x="426.25" y="471.0386">&#21542;</text><rect fill="#F1F1F1" height="33.9688" rx="12.5" ry="12.5" style="stroke:#181818;stroke-width:0.5;" width="248" x="55.5" y="546.4492"/><text fill="#000000" font-family="sans-serif" font-size="12" lengthAdjust="spacing" textLength="228" x="65.5" y="567.5879">&#31561;&#27604;&#20363;&#21387;&#32553;&#22270;&#20687;&#25968;&#25454;&#33267;&#30701;&#36793;&#38271;&#24230;&#20026;800&#20687;&#32032;</text><polygon fill="#F1F1F1" points="113.5,496.4375,245.5,496.4375,257.5,509.2422,245.5,522.0469,113.5,522.0469,101.5,509.2422,113.5,496.4375" style="stroke:#181818;stroke-width:0.5;"/><text fill="#000000" font-family="sans-serif" font-size="11" lengthAdjust="spacing" textLength="11" x="183.5" y="532.2573">&#26159;</text><text fill="#000000" font-family="sans-serif" font-size="11" lengthAdjust="spacing" textLength="132" x="113.5" y="506.6479">AlignMinSizeAction(800)</text><text fill="#000000" font-family="sans-serif" font-size="11" lengthAdjust="spacing" textLength="120" x="113.5" y="519.4526">&#30701;&#36793;&#26159;&#21542;&#22823;&#20110;800&#20687;&#32032;&#65311;</text><text fill="#000000" font-family="sans-serif" font-size="11" lengthAdjust="spacing" textLength="11" x="257.5" y="506.6479">&#21542;</text><polygon fill="#F1F1F1" points="179.5,604.8203,191.5,616.8203,179.5,628.8203,167.5,616.8203,179.5,604.8203" style="stroke:#181818;stroke-width:0.5;"/><rect fill="#F1F1F1" height="47.9375" rx="12.5" ry="12.5" style="stroke:#181818;stroke-width:0.5;" width="212" x="73.5" y="648.8203"/><text fill="#000000" font-family="sans-serif" font-size="12" lengthAdjust="spacing" textLength="169" x="83.5" y="669.959">TaggingAction(force=True)</text><text fill="#000000" font-family="sans-serif" font-size="12" lengthAdjust="spacing" textLength="192" x="83.5" y="683.9277">&#36890;&#36807;WD14&#25171;&#26631;&#22120;&#36827;&#34892;&#22270;&#20687;&#25968;&#25454;&#26631;&#27880;</text><polygon fill="#F1F1F1" points="102.5,716.7578,256.5,716.7578,268.5,729.5625,256.5,742.3672,102.5,742.3672,90.5,729.5625,102.5,716.7578" style="stroke:#181818;stroke-width:0.5;"/><text fill="#000000" font-family="sans-serif" font-size="11" lengthAdjust="spacing" textLength="129" x="102.5" y="726.9683">FilterSimilarAction('all')</text><text fill="#000000" font-family="sans-serif" font-size="11" lengthAdjust="spacing" textLength="154" x="102.5" y="739.7729">&#21644;&#22788;&#29702;&#36807;&#30340;&#22270;&#20687;&#25968;&#25454;&#26159;&#21542;&#30456;&#20284;&#65311;</text><text fill="#000000" font-family="sans-serif" font-size="11" lengthAdjust="spacing" textLength="11" x="79.5" y="726.9683">&#26159;</text><text fill="#000000" font-family="sans-serif" font-size="11" lengthAdjust="spacing" textLength="11" x="268.5" y="726.9683">&#21542;</text><rect fill="#F1F1F1" height="33.9688" rx="12.5" ry="12.5" style="stroke:#181818;stroke-width:0.5;" width="104" x="11" y="752.3672"/><text fill="#000000" font-family="sans-serif" font-size="12" lengthAdjust="spacing" textLength="84" x="21" y="773.5059">&#20002;&#24323;&#26412;&#22270;&#20687;&#25968;&#25454;</text><ellipse cx="63" cy="832.3359" fill="none" rx="11" ry="11" style="stroke:#222222;stroke-width:1.0;"/><ellipse cx="63" cy="832.3359" fill="#222222" rx="6" ry="6" style="stroke:#111111;stroke-width:1.0;"/><rect fill="#F1F1F1" height="33.9688" rx="12.5" ry="12.5" style="stroke:#181818;stroke-width:0.5;" width="224" x="184" y="802.3789"/><text fill="#000000" font-family="sans-serif" font-size="12" lengthAdjust="spacing" textLength="204" x="194" y="823.5176">&#20572;&#27490;&#21518;&#32487;&#22270;&#20687;&#25968;&#25454;&#30340;&#22788;&#29702;&#24182;&#20851;&#38381;&#27969;&#27700;&#32447;</text><polygon fill="#F1F1F1" points="197.5,752.3672,394.5,752.3672,406.5,765.1719,394.5,777.9766,197.5,777.9766,185.5,765.1719,197.5,752.3672" style="stroke:#181818;stroke-width:0.5;"/><text fill="#000000" font-family="sans-serif" font-size="11" lengthAdjust="spacing" textLength="11" x="300" y="788.187">&#26159;</text><text fill="#000000" font-family="sans-serif" font-size="11" lengthAdjust="spacing" textLength="131" x="197.5" y="762.5776">FirstNSelectAction(200)</text><text fill="#000000" font-family="sans-serif" font-size="11" lengthAdjust="spacing" textLength="197" x="197.5" y="775.3823">&#22788;&#29702;&#21040;&#36825;&#19968;&#27493;&#30340;&#22270;&#20687;&#25968;&#25454;&#26159;&#21542;&#26377;200&#24352;&#65311;</text><text fill="#000000" font-family="sans-serif" font-size="11" lengthAdjust="spacing" textLength="11" x="406.5" y="762.5776">&#21542;</text><polygon fill="#F1F1F1" points="296,860.75,308,872.75,296,884.75,284,872.75,296,860.75" style="stroke:#181818;stroke-width:0.5;"/><rect fill="#F1F1F1" height="47.9375" rx="12.5" ry="12.5" style="stroke:#181818;stroke-width:0.5;" width="322" x="135" y="904.75"/><text fill="#000000" font-family="sans-serif" font-size="12" lengthAdjust="spacing" textLength="219" x="145" y="925.8887">RandomFilenameAction(ext='.png')</text><text fill="#000000" font-family="sans-serif" font-size="12" lengthAdjust="spacing" textLength="302" x="145" y="939.8574">&#38543;&#26426;&#21629;&#21517;&#22788;&#29702;&#21518;&#30340;&#22270;&#20687;&#25968;&#25454;&#24182;&#20445;&#23384;&#20026;PNG&#25193;&#23637;&#21517;&#22270;&#20687;&#25991;&#20214;</text><rect fill="#F1F1F1" height="47.9375" rx="12.5" ry="12.5" style="stroke:#181818;stroke-width:0.5;" width="312" x="140" y="972.6875"/><text fill="#000000" font-family="sans-serif" font-size="12" lengthAdjust="spacing" textLength="292" x="150" y="993.8262">TextualInversionExporter('/data/surtr_dataset')</text><text fill="#000000" font-family="sans-serif" font-size="12" lengthAdjust="spacing" textLength="156" x="150" y="1007.7949">&#23558;&#22270;&#20687;&#25991;&#20214;&#20445;&#23384;&#21040;&#25351;&#23450;&#30340;&#30446;&#24405;</text><rect fill="#F1F1F1" height="33.9688" rx="12.5" ry="12.5" style="stroke:#181818;stroke-width:0.5;" width="104" x="487" y="496.4375"/><text fill="#000000" font-family="sans-serif" font-size="12" lengthAdjust="spacing" textLength="84" x="497" y="517.5762">&#20002;&#24323;&#26412;&#22270;&#20687;&#25968;&#25454;</text><ellipse cx="539" cy="576.4063" fill="none" rx="11" ry="11" style="stroke:#222222;stroke-width:1.0;"/><ellipse cx="539" cy="576.4063" fill="#222222" rx="6" ry="6" style="stroke:#111111;stroke-width:1.0;"/><rect fill="#F1F1F1" height="33.9688" rx="12.5" ry="12.5" style="stroke:#181818;stroke-width:0.5;" width="104" x="621" y="460.8281"/><text fill="#000000" font-family="sans-serif" font-size="12" lengthAdjust="spacing" textLength="84" x="631" y="481.9668">&#20002;&#24323;&#26412;&#22270;&#20687;&#25968;&#25454;</text><ellipse cx="673" cy="540.7969" fill="none" rx="11" ry="11" style="stroke:#222222;stroke-width:1.0;"/><ellipse cx="673" cy="540.7969" fill="#222222" rx="6" ry="6" style="stroke:#111111;stroke-width:1.0;"/><rect fill="#F1F1F1" height="33.9688" rx="12.5" ry="12.5" style="stroke:#181818;stroke-width:0.5;" width="104" x="755" y="342.2813"/><text fill="#000000" font-family="sans-serif" font-size="12" lengthAdjust="spacing" textLength="84" x="765" y="363.4199">&#20002;&#24323;&#26412;&#22270;&#20687;&#25968;&#25454;</text><ellipse cx="807" cy="422.25" fill="none" rx="11" ry="11" style="stroke:#222222;stroke-width:1.0;"/><ellipse cx="807" cy="422.25" fill="#222222" rx="6" ry="6" style="stroke:#111111;stroke-width:1.0;"/><rect fill="#F1F1F1" height="33.9688" rx="12.5" ry="12.5" style="stroke:#181818;stroke-width:0.5;" width="104" x="889" y="306.6719"/><text fill="#000000" font-family="sans-serif" font-size="12" lengthAdjust="spacing" textLength="84" x="899" y="327.8105">&#20002;&#24323;&#26412;&#22270;&#20687;&#25968;&#25454;</text><ellipse cx="941" cy="386.6406" fill="none" rx="11" ry="11" style="stroke:#222222;stroke-width:1.0;"/><ellipse cx="941" cy="386.6406" fill="#222222" rx="6" ry="6" style="stroke:#111111;stroke-width:1.0;"/><rect fill="#F1F1F1" height="33.9688" rx="12.5" ry="12.5" style="stroke:#181818;stroke-width:0.5;" width="104" x="1032.2813" y="271.0625"/><text fill="#000000" font-family="sans-serif" font-size="12" lengthAdjust="spacing" textLength="84" x="1042.2813" y="292.2012">&#20002;&#24323;&#26412;&#22270;&#20687;&#25968;&#25454;</text><ellipse cx="1084.2813" cy="351.0313" fill="none" rx="11" ry="11" style="stroke:#222222;stroke-width:1.0;"/><ellipse cx="1084.2813" cy="351.0313" fill="#222222" rx="6" ry="6" style="stroke:#111111;stroke-width:1.0;"/><rect fill="#F1F1F1" height="33.9688" rx="12.5" ry="12.5" style="stroke:#181818;stroke-width:0.5;" width="104" x="1166.2813" y="235.4531"/><text fill="#000000" font-family="sans-serif" font-size="12" lengthAdjust="spacing" textLength="84" x="1176.2813" y="256.5918">&#20002;&#24323;&#26412;&#22270;&#20687;&#25968;&#25454;</text><ellipse cx="1218.2813" cy="315.4219" fill="none" rx="11" ry="11" style="stroke:#222222;stroke-width:1.0;"/><ellipse cx="1218.2813" cy="315.4219" fill="#222222" rx="6" ry="6" style="stroke:#111111;stroke-width:1.0;"/><ellipse cx="1080.5313" cy="1050.625" fill="none" rx="10" ry="10" style="stroke:#222222;stroke-width:1.5;"/><line style="stroke:#222222;stroke-width:2.5;" x1="1074.3441" x2="1086.7184" y1="1044.4378" y2="1056.8122"/><line style="stroke:#222222;stroke-width:2.5;" x1="1086.7184" x2="1074.3441" y1="1044.4378" y2="1056.8122"/><line style="stroke:#181818;stroke-width:1.0;" x1="1080.5313" x2="1080.5313" y1="30" y2="50"/><polygon fill="#181818" points="1076.5313,40,1080.5313,50,1084.5313,40,1080.5313,44" style="stroke:#181818;stroke-width:1.0;"/><line style="stroke:#181818;stroke-width:1.0;" x1="1080.5313" x2="1080.5313" y1="97.9375" y2="117.9375"/><polygon fill="#181818" points="1076.5313,107.9375,1080.5313,117.9375,1084.5313,107.9375,1080.5313,111.9375" style="stroke:#181818;stroke-width:1.0;"/><line style="stroke:#181818;stroke-width:1.0;" x1="179.5" x2="179.5" y1="522.0469" y2="546.4492"/><polygon fill="#181818" points="175.5,536.4492,179.5,546.4492,183.5,536.4492,179.5,540.4492" style="stroke:#181818;stroke-width:1.0;"/><line style="stroke:#181818;stroke-width:1.0;" x1="257.5" x2="313.5" y1="509.2422" y2="509.2422"/><polygon fill="#181818" points="309.5,553.0313,313.5,563.0313,317.5,553.0313,313.5,557.0313" style="stroke:#181818;stroke-width:1.0;"/><line style="stroke:#181818;stroke-width:1.0;" x1="313.5" x2="313.5" y1="509.2422" y2="616.8203"/><line style="stroke:#181818;stroke-width:1.0;" x1="313.5" x2="191.5" y1="616.8203" y2="616.8203"/><polygon fill="#181818" points="201.5,612.8203,191.5,616.8203,201.5,620.8203,197.5,616.8203" style="stroke:#181818;stroke-width:1.0;"/><line style="stroke:#181818;stroke-width:1.0;" x1="179.5" x2="179.5" y1="580.418" y2="604.8203"/><polygon fill="#181818" points="175.5,594.8203,179.5,604.8203,183.5,594.8203,179.5,598.8203" style="stroke:#181818;stroke-width:1.0;"/><line style="stroke:#181818;stroke-width:1.0;" x1="179.5" x2="179.5" y1="628.8203" y2="648.8203"/><polygon fill="#181818" points="175.5,638.8203,179.5,648.8203,183.5,638.8203,179.5,642.8203" style="stroke:#181818;stroke-width:1.0;"/><line style="stroke:#181818;stroke-width:1.0;" x1="63" x2="63" y1="786.3359" y2="821.3359"/><polygon fill="#181818" points="59,811.3359,63,821.3359,67,811.3359,63,815.3359" style="stroke:#181818;stroke-width:1.0;"/><line style="stroke:#181818;stroke-width:1.0;" x1="296" x2="296" y1="777.9766" y2="802.3789"/><polygon fill="#181818" points="292,792.3789,296,802.3789,300,792.3789,296,796.3789" style="stroke:#181818;stroke-width:1.0;"/><line style="stroke:#181818;stroke-width:1.0;" x1="406.5" x2="418.5" y1="765.1719" y2="765.1719"/><polygon fill="#181818" points="414.5,808.9609,418.5,818.9609,422.5,808.9609,418.5,812.9609" style="stroke:#181818;stroke-width:1.0;"/><line style="stroke:#181818;stroke-width:1.0;" x1="418.5" x2="418.5" y1="765.1719" y2="872.75"/><line style="stroke:#181818;stroke-width:1.0;" x1="418.5" x2="308" y1="872.75" y2="872.75"/><polygon fill="#181818" points="318,868.75,308,872.75,318,876.75,314,872.75" style="stroke:#181818;stroke-width:1.0;"/><line style="stroke:#181818;stroke-width:1.0;" x1="296" x2="296" y1="836.3477" y2="860.75"/><polygon fill="#181818" points="292,850.75,296,860.75,300,850.75,296,854.75" style="stroke:#181818;stroke-width:1.0;"/><line style="stroke:#181818;stroke-width:1.0;" x1="296" x2="296" y1="884.75" y2="904.75"/><polygon fill="#181818" points="292,894.75,296,904.75,300,894.75,296,898.75" style="stroke:#181818;stroke-width:1.0;"/><line style="stroke:#181818;stroke-width:1.0;" x1="296" x2="296" y1="952.6875" y2="972.6875"/><polygon fill="#181818" points="292,962.6875,296,972.6875,300,962.6875,296,966.6875" style="stroke:#181818;stroke-width:1.0;"/><line style="stroke:#181818;stroke-width:1.0;" x1="90.5" x2="63" y1="729.5625" y2="729.5625"/><line style="stroke:#181818;stroke-width:1.0;" x1="63" x2="63" y1="729.5625" y2="752.3672"/><polygon fill="#181818" points="59,742.3672,63,752.3672,67,742.3672,63,746.3672" style="stroke:#181818;stroke-width:1.0;"/><line style="stroke:#181818;stroke-width:1.0;" x1="268.5" x2="296" y1="729.5625" y2="729.5625"/><line style="stroke:#181818;stroke-width:1.0;" x1="296" x2="296" y1="729.5625" y2="752.3672"/><polygon fill="#181818" points="292,742.3672,296,752.3672,300,742.3672,296,746.3672" style="stroke:#181818;stroke-width:1.0;"/><line style="stroke:#181818;stroke-width:1.0;" x1="296" x2="296" y1="1020.625" y2="1025.625"/><line style="stroke:#181818;stroke-width:1.0;" x1="296" x2="1080.5313" y1="1025.625" y2="1025.625"/><line style="stroke:#181818;stroke-width:1.0;" x1="1080.5313" x2="1080.5313" y1="1025.625" y2="1040.625"/><polygon fill="#181818" points="1076.5313,1030.625,1080.5313,1040.625,1084.5313,1030.625,1080.5313,1034.625" style="stroke:#181818;stroke-width:1.0;"/><line style="stroke:#181818;stroke-width:1.0;" x1="179.5" x2="179.5" y1="696.7578" y2="716.7578"/><polygon fill="#181818" points="175.5,706.7578,179.5,716.7578,183.5,706.7578,179.5,710.7578" style="stroke:#181818;stroke-width:1.0;"/><line style="stroke:#181818;stroke-width:1.0;" x1="539" x2="539" y1="530.4063" y2="565.4063"/><polygon fill="#181818" points="535,555.4063,539,565.4063,543,555.4063,539,559.4063" style="stroke:#181818;stroke-width:1.0;"/><line style="stroke:#181818;stroke-width:1.0;" x1="292.25" x2="179.5" y1="473.6328" y2="473.6328"/><line style="stroke:#181818;stroke-width:1.0;" x1="179.5" x2="179.5" y1="473.6328" y2="496.4375"/><polygon fill="#181818" points="175.5,486.4375,179.5,496.4375,183.5,486.4375,179.5,490.4375" style="stroke:#181818;stroke-width:1.0;"/><line style="stroke:#181818;stroke-width:1.0;" x1="426.25" x2="539" y1="473.6328" y2="473.6328"/><line style="stroke:#181818;stroke-width:1.0;" x1="539" x2="539" y1="473.6328" y2="496.4375"/><polygon fill="#181818" points="535,486.4375,539,496.4375,543,486.4375,539,490.4375" style="stroke:#181818;stroke-width:1.0;"/><line style="stroke:#181818;stroke-width:1.0;" x1="673" x2="673" y1="494.7969" y2="529.7969"/><polygon fill="#181818" points="669,519.7969,673,529.7969,677,519.7969,673,523.7969" style="stroke:#181818;stroke-width:1.0;"/><line style="stroke:#181818;stroke-width:1.0;" x1="432.625" x2="359.25" y1="438.0234" y2="438.0234"/><line style="stroke:#181818;stroke-width:1.0;" x1="359.25" x2="359.25" y1="438.0234" y2="460.8281"/><polygon fill="#181818" points="355.25,450.8281,359.25,460.8281,363.25,450.8281,359.25,454.8281" style="stroke:#181818;stroke-width:1.0;"/><line style="stroke:#181818;stroke-width:1.0;" x1="599.625" x2="673" y1="438.0234" y2="438.0234"/><line style="stroke:#181818;stroke-width:1.0;" x1="673" x2="673" y1="438.0234" y2="460.8281"/><polygon fill="#181818" points="669,450.8281,673,460.8281,677,450.8281,673,454.8281" style="stroke:#181818;stroke-width:1.0;"/><line style="stroke:#181818;stroke-width:1.0;" x1="516.125" x2="516.125" y1="390.2188" y2="425.2188"/><polygon fill="#181818" points="512.125,415.2188,516.125,425.2188,520.125,415.2188,516.125,419.2188" style="stroke:#181818;stroke-width:1.0;"/><line style="stroke:#181818;stroke-width:1.0;" x1="807" x2="807" y1="376.25" y2="411.25"/><polygon fill="#181818" points="803,401.25,807,411.25,811,401.25,807,405.25" style="stroke:#181818;stroke-width:1.0;"/><line style="stroke:#181818;stroke-width:1.0;" x1="578.0625" x2="516.125" y1="319.4766" y2="319.4766"/><line style="stroke:#181818;stroke-width:1.0;" x1="516.125" x2="516.125" y1="319.4766" y2="342.2813"/><polygon fill="#181818" points="512.125,332.2813,516.125,342.2813,520.125,332.2813,516.125,336.2813" style="stroke:#181818;stroke-width:1.0;"/><line style="stroke:#181818;stroke-width:1.0;" x1="745.0625" x2="807" y1="319.4766" y2="319.4766"/><line style="stroke:#181818;stroke-width:1.0;" x1="807" x2="807" y1="319.4766" y2="342.2813"/><polygon fill="#181818" points="803,332.2813,807,342.2813,811,332.2813,807,336.2813" style="stroke:#181818;stroke-width:1.0;"/><line style="stroke:#181818;stroke-width:1.0;" x1="941" x2="941" y1="340.6406" y2="375.6406"/><polygon fill="#181818" points="937,365.6406,941,375.6406,945,365.6406,941,369.6406" style="stroke:#181818;stroke-width:1.0;"/><line style="stroke:#181818;stroke-width:1.0;" x1="712.2813" x2="661.5625" y1="283.8672" y2="283.8672"/><line style="stroke:#181818;stroke-width:1.0;" x1="661.5625" x2="661.5625" y1="283.8672" y2="306.6719"/><polygon fill="#181818" points="657.5625,296.6719,661.5625,306.6719,665.5625,296.6719,661.5625,300.6719" style="stroke:#181818;stroke-width:1.0;"/><line style="stroke:#181818;stroke-width:1.0;" x1="890.2813" x2="941" y1="283.8672" y2="283.8672"/><line style="stroke:#181818;stroke-width:1.0;" x1="941" x2="941" y1="283.8672" y2="306.6719"/><polygon fill="#181818" points="937,296.6719,941,306.6719,945,296.6719,941,300.6719" style="stroke:#181818;stroke-width:1.0;"/><line style="stroke:#181818;stroke-width:1.0;" x1="1084.2813" x2="1084.2813" y1="305.0313" y2="340.0313"/><polygon fill="#181818" points="1080.2813,330.0313,1084.2813,340.0313,1088.2813,330.0313,1084.2813,334.0313" style="stroke:#181818;stroke-width:1.0;"/><line style="stroke:#181818;stroke-width:1.0;" x1="811.2813" x2="801.2813" y1="248.2578" y2="248.2578"/><line style="stroke:#181818;stroke-width:1.0;" x1="801.2813" x2="801.2813" y1="248.2578" y2="271.0625"/><polygon fill="#181818" points="797.2813,261.0625,801.2813,271.0625,805.2813,261.0625,801.2813,265.0625" style="stroke:#181818;stroke-width:1.0;"/><line style="stroke:#181818;stroke-width:1.0;" x1="1074.2813" x2="1084.2813" y1="248.2578" y2="248.2578"/><line style="stroke:#181818;stroke-width:1.0;" x1="1084.2813" x2="1084.2813" y1="248.2578" y2="271.0625"/><polygon fill="#181818" points="1080.2813,261.0625,1084.2813,271.0625,1088.2813,261.0625,1084.2813,265.0625" style="stroke:#181818;stroke-width:1.0;"/><line style="stroke:#181818;stroke-width:1.0;" x1="1218.2813" x2="1218.2813" y1="269.4219" y2="304.4219"/><polygon fill="#181818" points="1214.2813,294.4219,1218.2813,304.4219,1222.2813,294.4219,1218.2813,298.4219" style="stroke:#181818;stroke-width:1.0;"/><line style="stroke:#181818;stroke-width:1.0;" x1="1003.5313" x2="942.7813" y1="212.6484" y2="212.6484"/><line style="stroke:#181818;stroke-width:1.0;" x1="942.7813" x2="942.7813" y1="212.6484" y2="235.4531"/><polygon fill="#181818" points="938.7813,225.4531,942.7813,235.4531,946.7813,225.4531,942.7813,229.4531" style="stroke:#181818;stroke-width:1.0;"/><line style="stroke:#181818;stroke-width:1.0;" x1="1157.5313" x2="1218.2813" y1="212.6484" y2="212.6484"/><line style="stroke:#181818;stroke-width:1.0;" x1="1218.2813" x2="1218.2813" y1="212.6484" y2="235.4531"/><polygon fill="#181818" points="1214.2813,225.4531,1218.2813,235.4531,1222.2813,225.4531,1218.2813,229.4531" style="stroke:#181818;stroke-width:1.0;"/><line style="stroke:#181818;stroke-width:1.0;" x1="1080.5313" x2="1080.5313" y1="179.8438" y2="199.8438"/><polygon fill="#181818" points="1076.5313,189.8438,1080.5313,199.8438,1084.5313,189.8438,1080.5313,193.8438" style="stroke:#181818;stroke-width:1.0;"/><!--SRC=[jPLTJzfG6CVl-HJS5P9bwhAB1UA5qyrueJ5YiWjTbWeLczLJqvRDx4hZ2p1vcnEduY9pRhvCbAbpM42-JCzfkTfNs5DFGQhuSh5nqPJJy_p-__CyVugii9BYy7InQ4GKfP1F34b-pZN4o259aLwvMEarueDZYkncNhezmqWh9cfRzSW-JYxZp3cUIP9qdiGFl0vFhnZWEaNqXfEK3h_2YyZ537G_PHuucRTZlC8nxc5abFT9V5ChgF30Y1xXyYx9bd0fEOnS-F2iEfKaAmbZ9aPM3_MrMVAxYDzdzTKoxAIBRg_3mOywNNrYhuX4_vWaZdEM5C39oY5EVJUlyRG9pvp_AMsudSeOXvmkUE9sE9rcTQV0ol9pNb0uoIeUOdX12CcAn9fVJSSZB0g6ndauU0EN91VrfIA9BElfFHpT9f4zkmPiCJMe2XNmyUEymDPq65OGp3RWnHZUcjLJyqOb30Tjx2CLqpC5hLIwRhyEP_tGwX2gDRgjRXF7vd3gXrPOqefpz1wweHMcD5K5ZMPcpO-ddvDa4Vac15wvRAZnTHg7LUfEA-GijAhgqLrmNPtPmP5vRvtnFtnP0-liwRzqHGrGAYG99uzmVacFdi7rPWm5TGXy4FNooCU_g-NcIMihCFMDd75-PZdTsjRK1Ao3B_qaUniJ6gVdekHmIJjVm8a5lRJRE4eZV4ovrNG5gwRNEjHhmt22pDb6R2sZ03zgM_4Cii4WZuAMzr4HVg_jWrA8WoDKfzOWJI-wsXwJw4UI3UFL7QEICRx4REdAXidnZlTQO_vjM9lrIIjiuj8CMT-tlpJiksH5dBXFPsgc9Ldfyt42vw_bxT75DAbT7CaRbLM86CbzQ-gRh4TXFoxTCM8mZwVNIMuJfn9wSRkHOsAfrjafdZkkVigHNzCaVwAhbQj7k_4arwSCWWCi2eZZC1KEiVLN73Ufj3CF9r3Gd4frBKdMLVoXZ5DnomFOinyJN6cLppYt0j7hx-icqLtyCstkftkMmrhnzAfFpo38X5YXntoFoo3xR792b20SBgObm2fi2_rpC6zbJhd8Htw-4KWLeVaa5iO7Qs19pnpWSjfxQxPlQCzzOdCbD7PoK-xTL1kpaTY4TnUjWNL9efo6jDrEgJDgX2i-RgksQccbJVVcgeiQgm85_W80]--></g></svg>